<svg width="25" height="25" viewBox="0 0 25 25" fill="none" xmlns="http://www.w3.org/2000/svg">
<rect x="15.6035" y="11.1947" width="2" height="12" rx="1" transform="rotate(90 15.6035 11.1947)" fill="white"/>
<path d="M10.6096 7.19472C10.6096 7.747 10.1621 8.19472 9.61002 8.19472C9.05798 8.19472 8.61046 7.747 8.61046 7.19472V6.19472C8.61046 3.98558 10.4005 2.19472 12.6087 2.19472H18.6053C20.8134 2.19472 22.6035 3.98558 22.6035 6.19472V18.1947C22.6035 20.4039 20.8134 22.1947 18.6053 22.1947H12.6018C10.3936 22.1947 8.60352 20.4039 8.60352 18.1947V17.1947C8.60352 16.6424 9.05104 16.1947 9.60308 16.1947C10.1551 16.1947 10.6026 16.6424 10.6026 17.1947V18.1947C10.6026 19.2993 11.4977 20.1947 12.6018 20.1947H18.6053C19.7093 20.1947 20.6044 19.2993 20.6044 18.1947V6.19472C20.6044 5.09015 19.7093 4.19472 18.6053 4.19472H12.6087C11.5046 4.19472 10.6096 5.09015 10.6096 6.19472V7.19472Z" fill="white"/>
<path d="M12.8964 9.90182C12.5059 9.5113 12.5059 8.87814 12.8964 8.48761C13.2869 8.09709 13.9201 8.09709 14.3106 8.48761L17.3106 11.4876C17.7011 11.8781 17.7011 12.5113 17.3106 12.9018L14.3106 15.9018C13.9201 16.2923 13.2869 16.2923 12.8964 15.9018C12.5059 15.5113 12.5059 14.8781 12.8964 14.4876L15.1893 12.1947L12.8964 9.90182Z" fill="white"/>
</svg>
