<svg width="43" height="43" viewBox="0 0 43 43" fill="none" xmlns="http://www.w3.org/2000/svg">
<ellipse cx="21.2661" cy="21.0713" rx="21.0583" ry="21" fill="#FEBA53"/>
<path fill-rule="evenodd" clip-rule="evenodd" d="M30.7922 15.9238C30.7922 14.267 29.4491 12.9238 27.7922 12.9238H13.7367C12.0798 12.9238 10.7367 14.267 10.7367 15.9238V24.9238L10.7367 24.9336L10.7117 24.9238V29.5143C10.7117 30.4046 11.7874 30.851 12.4178 30.2224L14.7228 27.9238H27.7922C29.4491 27.9238 30.7922 26.5807 30.7922 24.9238V15.9238ZM26.3346 19.0918C26.7954 19.3981 26.9199 20.019 26.6127 20.4785C25.0989 22.743 23.1253 23.9238 20.7645 23.9238C18.4036 23.9238 16.43 22.743 14.9162 20.4785C14.609 20.019 14.7335 19.3981 15.1943 19.0918C15.6551 18.7854 16.2777 18.9096 16.5849 19.3691C17.7452 21.1047 19.1142 21.9238 20.7645 21.9238C22.4147 21.9238 23.7837 21.1047 24.944 19.3691C25.2512 18.9096 25.8738 18.7854 26.3346 19.0918Z" fill="white"/>
</svg>
