<svg width="45" height="43" viewBox="0 0 45 43" fill="none" xmlns="http://www.w3.org/2000/svg">
<ellipse cx="22.5011" cy="21.0713" rx="22.066" ry="21" fill="#FEBA53"/>
<path fill-rule="evenodd" clip-rule="evenodd" d="M19.468 23.3675V26.2707H21.673C26.1197 26.2707 29.611 22.853 29.611 18.443C29.611 14.033 26.1197 10.6152 21.673 10.6152C17.2262 10.6152 13.7717 14.033 13.7717 18.443H16.8955C16.8955 15.65 18.8432 13.5185 21.673 13.5185C24.466 13.5185 26.4872 15.65 26.4872 18.443C26.4872 21.236 24.466 23.3675 21.673 23.3675H19.468ZM21.1837 28.2517C20.6314 28.2517 20.1837 28.6995 20.1837 29.2517V30.7517C20.1837 31.304 20.6314 31.7517 21.1837 31.7517H22.6837C23.236 31.7517 23.6837 31.304 23.6837 30.7517V29.2517C23.6837 28.6995 23.236 28.2517 22.6837 28.2517H21.1837Z" fill="white"/>
</svg>
