<svg width="43" height="43" viewBox="0 0 43 43" fill="none" xmlns="http://www.w3.org/2000/svg">
<circle cx="21.717" cy="21.0713" r="21" fill="#FEBA53"/>
<path fill-rule="evenodd" clip-rule="evenodd" d="M27.717 12.9238C29.3739 12.9238 30.717 14.267 30.717 15.9238V24.9238C30.717 26.5807 29.3739 27.9238 27.717 27.9238H15.6921L13.3992 30.2167C12.7692 30.8467 11.6921 30.4005 11.6921 29.5096V24.9238L11.7171 24.9336C11.717 24.9304 11.717 24.9271 11.717 24.9238V15.9238C11.717 14.267 13.0602 12.9238 14.717 12.9238H27.717Z" fill="white"/>
<path fill-rule="evenodd" clip-rule="evenodd" d="M26.217 21.9238C27.0455 21.9238 27.717 21.2523 27.717 20.4238C27.717 19.5954 27.0455 18.9238 26.217 18.9238C25.3886 18.9238 24.717 19.5954 24.717 20.4238C24.717 21.2523 25.3886 21.9238 26.217 21.9238ZM21.217 21.9238C22.0455 21.9238 22.717 21.2523 22.717 20.4238C22.717 19.5954 22.0455 18.9238 21.217 18.9238C20.3886 18.9238 19.717 19.5954 19.717 20.4238C19.717 21.2523 20.3886 21.9238 21.217 21.9238ZM16.217 21.9238C17.0455 21.9238 17.717 21.2523 17.717 20.4238C17.717 19.5954 17.0455 18.9238 16.217 18.9238C15.3886 18.9238 14.717 19.5954 14.717 20.4238C14.717 21.2523 15.3886 21.9238 16.217 21.9238Z" fill="#FEBA53"/>
</svg>
