<svg width="12" height="12" viewBox="0 0 12 12" fill="none" xmlns="http://www.w3.org/2000/svg">
<path fill-rule="evenodd" clip-rule="evenodd" d="M2.79395 3.97457C2.79395 2.13362 4.28633 0.641235 6.12728 0.641235C7.96823 0.641235 9.46061 2.13362 9.46061 3.97457L9.46061 5.3079C10.5652 5.3079 11.4606 6.20333 11.4606 7.3079V9.97457C11.4606 11.0791 10.5652 11.9746 9.46061 11.9746H2.79395C1.68938 11.9746 0.793945 11.0791 0.793945 9.97457V7.3079C0.793945 6.20333 1.68938 5.3079 2.79395 5.3079L2.79395 3.97457ZM6.12728 1.97457C5.02271 1.97457 4.12728 2.87 4.12728 3.97457V5.3079H8.12728V3.97457C8.12728 2.87 7.23185 1.97457 6.12728 1.97457Z" fill="#918F8F"/>
</svg>
