<svg width="17" height="17" viewBox="0 0 17 17" fill="none" xmlns="http://www.w3.org/2000/svg">
<path fill-rule="evenodd" clip-rule="evenodd" d="M3.87751 2.92369C4.2262 2.92369 4.50887 3.20636 4.50887 3.55506L4.50887 4.81778L5.7716 4.81778C6.12029 4.81778 6.40296 5.10045 6.40296 5.44914C6.40296 5.79784 6.12029 6.08051 5.7716 6.08051L4.50887 6.08051L4.50887 7.34324C4.50887 7.69194 4.2262 7.97461 3.87751 7.97461C3.52881 7.97461 3.24614 7.69194 3.24614 7.34324L3.24614 6.08051L1.98341 6.08051C1.63472 6.08051 1.35205 5.79784 1.35205 5.44914C1.35205 5.10045 1.63472 4.81778 1.98341 4.81778L3.24614 4.81778L3.24614 3.55506C3.24614 3.20636 3.52881 2.92369 3.87751 2.92369ZM13.3521 5.30791C13.3521 3.83515 12.1581 2.64124 10.6854 2.64124C9.21262 2.64124 8.01872 3.83515 8.01872 5.30791C8.01872 6.78067 9.21262 7.97458 10.6854 7.97458C12.1581 7.97458 13.3521 6.78067 13.3521 5.30791Z" fill="#052C9B"/>
<path d="M4.68598 14.1074C4.94439 10.9256 7.52682 9.30792 10.6744 9.30792C13.8664 9.30792 16.4888 10.8367 16.6842 14.1079C16.6919 14.2382 16.6842 14.6413 16.1833 14.6413C13.713 14.6413 10.042 14.6413 5.17055 14.6413C5.00335 14.6413 4.67191 14.2807 4.68598 14.1074Z" fill="#052C9B"/>
</svg>
