<svg width="17" height="17" viewBox="0 0 17 17" fill="none" xmlns="http://www.w3.org/2000/svg">
<path fill-rule="evenodd" clip-rule="evenodd" d="M3.75007 3.12901C4.09876 3.12901 4.38143 3.41169 4.38143 3.76038L4.38143 5.0231L5.64416 5.0231C5.99285 5.0231 6.27552 5.30577 6.27552 5.65447C6.27552 6.00316 5.99285 6.28583 5.64416 6.28583L4.38143 6.28583L4.38143 7.54857C4.38143 7.89726 4.09876 8.17993 3.75006 8.17993C3.40137 8.17993 3.1187 7.89726 3.1187 7.54857L3.1187 6.28583L1.85597 6.28583C1.50728 6.28583 1.22461 6.00316 1.22461 5.65447C1.22461 5.30577 1.50728 5.0231 1.85597 5.0231L3.1187 5.0231L3.1187 3.76038C3.1187 3.41169 3.40137 3.12901 3.75007 3.12901ZM13.2246 5.51323C13.2246 4.04047 12.0307 2.84656 10.5579 2.84656C9.08518 2.84656 7.89128 4.04047 7.89128 5.51323C7.89128 6.98599 9.08518 8.1799 10.5579 8.1799C12.0307 8.1799 13.2246 6.98599 13.2246 5.51323Z" fill="#918F8F"/>
<path d="M4.55854 14.3129C4.81694 11.1311 7.39938 9.51343 10.547 9.51343C13.7389 9.51343 16.3614 11.0422 16.5567 14.3134C16.5645 14.4437 16.5567 14.8468 16.0559 14.8468C13.5855 14.8468 9.91459 14.8468 5.04311 14.8468C4.87591 14.8468 4.54446 14.4862 4.55854 14.3129Z" fill="#918F8F"/>
</svg>
