<svg width="12" height="13" viewBox="0 0 12 13" fill="none" xmlns="http://www.w3.org/2000/svg">
<path fill-rule="evenodd" clip-rule="evenodd" d="M2.6665 4.18002C2.6665 2.33907 4.15889 0.84668 5.99984 0.84668C7.84079 0.84668 9.33317 2.33906 9.33317 4.18001L9.33317 5.51335C10.4377 5.51335 11.3332 6.40878 11.3332 7.51335V10.18C11.3332 11.2846 10.4377 12.18 9.33317 12.18H2.66651C1.56194 12.18 0.666504 11.2846 0.666504 10.18V7.51334C0.666504 6.40878 1.56193 5.51335 2.6665 5.51335L2.6665 4.18002ZM5.99984 2.18001C4.89527 2.18001 3.99984 3.07544 3.99984 4.18001V5.51335H7.99984V4.18001C7.99984 3.07544 7.10441 2.18001 5.99984 2.18001Z" fill="#052C9B"/>
</svg>
